<?xml version="1.0" standalone="no"?>
<!DOCTYPE svg PUBLIC "-//W3C//DTD SVG 20010904//EN"
 "http://www.w3.org/TR/2001/REC-SVG-20010904/DTD/svg10.dtd">
<svg version="1.0" xmlns="http://www.w3.org/2000/svg"
 width="300.000000pt" height="294.000000pt" viewBox="0 0 300.000000 294.000000"
 preserveAspectRatio="xMidYMid meet">
<metadata>
Created by potrace 1.10, written by Peter Selinger 2001-2011
</metadata>
<g transform="translate(0.000000,294.000000) scale(0.100000,-0.100000)"
fill="#000000" stroke="none">
<path d="M2920 2906 c0 -14 5 -28 10 -31 6 -4 10 7 10 24 0 17 -4 31 -10 31
-5 0 -10 -11 -10 -24z"/>
<path d="M20 1465 l0 -1455 1433 0 1434 0 0 1455 0 1455 -1434 0 -1433 0 0
-1455z m2840 -5 l0 -1430 -1405 0 -1405 0 0 1430 0 1430 1405 0 1405 0 0
-1430z"/>
<path d="M155 2850 c23 -10 2123 -10 2425 0 113 3 -391 7 -1120 7 -747 1
-1316 -2 -1305 -7z"/>
<path d="M95 1470 c0 -751 1 -1058 2 -682 2 375 2 989 0 1365 -1 375 -2 68 -2
-683z"/>
<path d="M2825 1470 c0 -751 1 -1058 2 -682 2 375 2 989 0 1365 -1 375 -2 68
-2 -683z"/>
<path d="M145 1470 l0 -1330 1318 0 1317 0 -2 1330 -3 1330 -1315 0 -1315 0 0
-1330z m2600 1308 c6 -5 7 -2609 2 -2615 -2 -2 -579 -3 -1282 -4 -906 0 -1281
3 -1289 11 -8 8 -12 386 -13 1288 -1 702 0 1287 2 1299 4 15 14 23 33 25 45 5
2542 2 2547 -4z"/>
<path d="M370 1445 l0 -1125 1093 0 1092 0 0 1125 0 1125 -1092 0 -1093 0 0
-1125z m2137 1082 c10 -6 13 -234 13 -1082 -1 -645 -4 -1077 -10 -1080 -15 -9
-958 -10 -967 -1 -9 9 24 38 137 124 110 83 163 121 180 129 8 3 29 16 45 28
17 12 102 63 190 114 201 117 205 121 205 184 0 56 -20 87 -54 87 -24 0 -268
-130 -371 -197 -38 -26 -88 -58 -110 -72 -22 -14 -91 -64 -153 -111 -62 -47
-122 -91 -133 -99 -22 -16 -5 -26 -171 100 -62 47 -144 106 -183 131 -126 82
-389 226 -442 242 -34 11 -63 -28 -63 -85 0 -41 4 -51 35 -78 20 -17 63 -45
95 -61 231 -116 661 -413 636 -438 -9 -8 -952 -11 -966 -2 -9 5 -12 248 -14
1046 -1 571 -1 1058 2 1081 3 28 10 43 21 46 32 7 2066 1 2078 -6z m-237
-1570 l0 -54 -137 -78 c-233 -132 -463 -287 -607 -410 l-65 -55 -45 39 c-176
153 -359 274 -691 458 l-69 39 -3 52 c-2 28 0 52 3 52 4 0 62 -29 130 -64 219
-116 425 -250 599 -389 l80 -65 40 37 c120 109 356 269 595 400 91 50 166 91
168 91 1 0 2 -24 2 -53z"/>
<path d="M457 2472 c-15 -17 -17 -65 -17 -483 0 -515 -2 -497 66 -525 41 -17
39 -17 58 2 14 13 16 67 16 434 0 230 3 425 6 434 6 14 91 16 869 16 814 0
864 -1 869 -17 2 -10 5 -204 5 -431 1 -475 -1 -466 77 -434 66 28 66 27 62
533 -2 368 -6 459 -17 472 -12 16 -95 17 -996 17 -939 0 -983 -1 -998 -18z
m1988 -478 l0 -477 -35 -23 c-19 -13 -41 -23 -47 -23 -10 -1 -13 95 -13 449
l0 450 -895 0 -895 0 0 -450 c0 -308 -3 -450 -11 -450 -5 0 -28 10 -49 23
l-40 22 0 478 0 477 993 0 993 0 -1 -476z"/>
<path d="M1407 2258 c-18 -19 -50 -56 -72 -83 -22 -27 -61 -73 -87 -103 -27
-30 -48 -60 -48 -65 0 -6 -3 -7 -6 -4 -7 7 -44 -36 -44 -51 0 -6 -5 -12 -11
-14 -7 -2 -10 -10 -8 -17 3 -8 68 61 153 160 81 96 156 180 165 187 15 11 23
6 59 -37 l41 -49 -28 -5 c-33 -7 -161 -138 -161 -165 0 -10 -16 -37 -36 -60
-35 -41 -37 -42 -99 -42 -35 0 -67 -4 -70 -10 -9 -14 121 -13 147 1 11 6 22 8
25 5 3 -2 5 -78 5 -168 0 -186 5 -208 66 -256 48 -39 75 -40 108 -7 14 14 29
25 34 25 5 0 16 11 25 23 12 19 16 59 16 196 1 94 5 174 10 177 5 3 28 -2 52
-10 50 -17 122 -12 144 9 9 10 13 25 9 40 -14 54 -291 347 -334 353 -16 2 -33
-8 -55 -30z m263 -218 l109 -125 -67 -3 -67 -3 -87 93 -87 93 -3 -313 -3 -314
-47 42 -48 42 0 222 0 223 83 85 c45 47 88 85 95 84 7 0 62 -57 122 -126z
m-132 -56 c22 -15 22 -19 22 -228 l0 -213 -37 -26 c-20 -15 -38 -25 -40 -23
-2 2 1 15 7 30 6 16 10 122 10 252 0 123 3 224 8 224 4 0 18 -7 30 -16z"/>
<path d="M808 1685 c-75 -39 -82 -47 -74 -80 5 -19 43 -42 189 -115 189 -95
331 -176 382 -218 6 -4 25 -17 43 -27 17 -11 32 -22 32 -26 0 -16 73 -49 93
-43 20 6 117 70 127 84 3 4 27 20 53 36 27 16 61 37 75 46 41 26 143 81 292
157 155 79 180 99 161 134 -11 21 -132 87 -159 87 -12 0 -237 -105 -291 -136
-71 -40 -177 -112 -204 -138 -16 -15 -39 -33 -51 -41 -21 -14 -24 -13 -52 16
-25 26 -101 83 -169 127 -67 42 -345 172 -368 172 -6 -1 -42 -16 -79 -35z
m462 -189 c39 -26 99 -73 132 -106 l62 -60 54 55 c76 76 169 137 351 226 l155
76 68 -32 c38 -18 68 -36 66 -40 -2 -4 -95 -54 -208 -111 -207 -104 -356 -194
-442 -266 l-47 -39 -63 51 c-96 78 -223 154 -446 266 l-203 102 73 34 73 35
152 -73 c83 -40 184 -93 223 -118z"/>
<path d="M641 1539 c-28 -26 -30 -122 -3 -156 9 -12 85 -57 167 -99 212 -109
401 -223 529 -321 61 -45 118 -83 126 -83 21 0 45 15 151 96 112 84 276 189
369 236 25 13 47 25 50 28 3 3 58 31 122 62 68 33 124 67 133 81 19 30 22 116
4 145 -9 14 -24 22 -42 22 -29 0 -337 -148 -479 -231 -78 -45 -226 -148 -268
-186 -33 -31 -48 -29 -95 13 -118 103 -482 310 -694 394 -48 19 -49 19 -70 -1z
m247 -124 c234 -118 426 -235 519 -319 l52 -47 68 57 c110 93 263 187 505 309
124 63 228 115 230 115 2 0 3 -29 3 -65 0 -36 -2 -65 -5 -65 -3 0 -93 -47
-201 -104 -247 -130 -472 -276 -568 -367 -16 -15 -28 -19 -36 -13 -7 5 -39 30
-71 57 -127 103 -359 243 -644 389 l-85 43 -3 63 c-2 34 -1 62 1 62 3 0 108
-52 235 -115z"/>
<path d="M456 1367 c-15 -22 -18 -199 -16 -820 0 -171 -36 -157 389 -154 192
1 353 5 356 9 16 16 -56 19 -383 16 l-342 -3 0 478 c0 317 3 477 10 477 6 0
28 -11 50 -25 l40 -25 0 -405 0 -405 266 0 265 0 66 -47 c56 -40 63 -43 49
-20 -10 14 -38 40 -64 57 l-45 30 -247 0 c-178 0 -249 3 -258 12 -9 9 -12 109
-12 391 0 241 -4 385 -10 398 -9 16 -77 59 -94 59 -3 0 -12 -10 -20 -23z"/>
<path d="M2393 1370 c-17 -10 -37 -28 -42 -39 -7 -13 -11 -152 -11 -405 l0
-386 -246 0 -247 0 -52 -30 c-46 -27 -73 -55 -62 -66 2 -2 29 14 60 36 l57 41
255 -3 255 -3 0 407 0 406 44 25 c25 14 47 22 50 19 3 -3 6 -218 6 -479 l0
-473 -372 0 c-233 0 -367 -4 -357 -10 8 -5 166 -9 350 -10 397 -1 360 -3 382
14 17 13 18 41 17 476 0 288 -4 470 -11 481 -12 24 -36 24 -76 -1z"/>
<path d="M2200 1277 c-30 -13 -84 -40 -120 -61 -36 -21 -99 -57 -140 -79 -106
-58 -291 -179 -386 -253 -87 -68 -105 -75 -126 -46 -7 9 -29 28 -48 42 -84 59
-308 206 -335 220 -17 8 -32 18 -35 21 -3 3 -18 12 -35 21 -16 8 -88 45 -159
82 -71 36 -137 66 -147 66 -32 0 -49 -28 -49 -84 0 -69 19 -90 135 -152 151
-80 168 -89 240 -132 110 -65 205 -130 327 -224 62 -47 123 -88 135 -90 16 -2
61 26 150 93 231 172 344 243 595 371 77 39 98 67 98 133 0 41 -5 56 -23 73
l-22 21 -55 -22z m-1524 -16 c5 -5 68 -39 139 -76 233 -122 487 -284 596 -381
l49 -44 80 65 c83 67 206 152 325 225 56 34 393 220 399 220 1 0 1 -27 1 -60
l-1 -61 -154 -82 c-242 -129 -506 -304 -615 -407 l-30 -29 -60 50 c-162 135
-373 272 -592 386 -82 42 -151 81 -155 87 -10 15 -10 116 0 116 4 0 12 -4 18
-9z"/>
<path d="M225 90 c-66 -4 490 -6 1235 -7 745 0 1348 1 1340 3 -24 7 -2441 10
-2575 4z"/>
<path d="M2929 1453 c0 -775 -2 -1416 -4 -1425 -2 -10 1 -20 6 -24 5 -3 9 567
9 1425 0 787 -2 1431 -5 1431 -3 0 -5 -633 -6 -1407z"/>
<path d="M2983 1163 c-18 -7 -16 -48 2 -63 13 -11 15 -7 15 29 0 22 -1 41 -2
40 -2 0 -9 -3 -15 -6z"/>
</g>
</svg>
